<svg xmlns="http://www.w3.org/2000/svg" id="tw_icon_hotel_marine" width="15.658" height="20" viewBox="0 0 15.658 20">
    <defs>
        <style>
            .cls-1{fill:#40b5a8}
        </style>
    </defs>
    <path id="Path_12927" d="M557.222 441.721v-14.549h-11.893v14.549h-1.882v.941h6.873v-3.5h1.9v3.5h6.88v-.941zm-6.751-4.913h-2.742v-2.742h2.742zm0-4.266h-2.742V429.8h2.742zm4.339 4.266h-2.743v-2.742h2.743zm0-4.266h-2.743V429.8h2.743z" class="cls-1" transform="translate(-543.447 -422.663)"/>
    <path id="Path_12928" d="M547.966 426.069l.856-.365.854.365-.084-.925.611-.7-.905-.206-.475-.8-.476.8-.906.206.612.7z" class="cls-1" transform="translate(-542.614 -423.441)"/>
    <path id="Path_12929" d="M550.805 426.1l.855-.368.855.368-.086-.926.614-.7-.908-.2-.475-.8-.475.8-.907.2.613.7z" class="cls-1" transform="translate(-542.022 -423.435)"/>
</svg>
