<svg xmlns="http://www.w3.org/2000/svg" width="80" height="15.435" viewBox="0 0 80 15.435">
    <defs>
        <style>
            .cls-1{fill:#40b5a8}
        </style>
    </defs>
    <g id="Group_7501" transform="translate(-10.989 -19.718)">
        <g id="Group_3301" transform="translate(10.989 19.718)">
            <g id="Group_2869" transform="translate(2.648 2.818)">
                <path id="Path_1187" d="M-6.639-15.068a.731.731 0 0 1-.472-.172.734.734 0 0 1-.09-1.034l2.6-3.1a2.905 2.905 0 0 0 .701-2.017 2.9 2.9 0 0 0-.863-1.944 2.961 2.961 0 0 0-2.1-.869 2.959 2.959 0 0 0-2.1.867 2.9 2.9 0 0 0-.871 1.945 2.9 2.9 0 0 0 .685 2.013l1.449 1.635a.734.734 0 0 1-.059 1.037.735.735 0 0 1-1.037-.059l-1.471-1.649a4.377 4.377 0 0 1-1.044-3.044A4.366 4.366 0 0 1-10-24.381a4.417 4.417 0 0 1 3.13-1.291 4.42 4.42 0 0 1 3.137 1.294 4.364 4.364 0 0 1 1.3 2.923 4.365 4.365 0 0 1-1.039 3.026l-2.6 3.1a.734.734 0 0 1-.563.262" class="cls-1" transform="translate(11.313 25.672)"/>
            </g>
            <g id="Group_2870">
                <path id="Path_1188" d="M-7.859-21.935a.735.735 0 0 1-.542-.238l-3.32-3.622a6.971 6.971 0 0 1-1.664-4.852 6.961 6.961 0 0 1 2.085-4.659 7.05 7.05 0 0 1 5-2.064 7.054 7.054 0 0 1 5.01 2.07 6.957 6.957 0 0 1 2.068 4.658 6.958 6.958 0 0 1-1.657 4.827l-2.892 3.468a.734.734 0 0 1-1.034.094.734.734 0 0 1-.095-1.035l2.9-3.473a5.5 5.5 0 0 0 1.311-3.817 5.5 5.5 0 0 0-1.635-3.682A5.6 5.6 0 0 0-6.3-35.9a5.594 5.594 0 0 0-3.972 1.639 5.5 5.5 0 0 0-1.647 3.683 5.493 5.493 0 0 0 1.3 3.814l2.746 2.995 1.924-2.207a.735.735 0 0 1 1.036-.071.734.734 0 0 1 .071 1.036l-2.464 2.826a.735.735 0 0 1-.545.252z" class="cls-1" transform="translate(13.392 37.37)"/>
            </g>
            <g id="Group_2871" transform="translate(5.75 5.973)">
                <path id="Path_1189" d="M-3.832-1.916A1.349 1.349 0 0 1-5.181-.568 1.349 1.349 0 0 1-6.53-1.916a1.349 1.349 0 0 1 1.349-1.349 1.349 1.349 0 0 1 1.349 1.349" class="cls-1" transform="translate(6.53 3.265)"/>
            </g>
        </g>
        <path id="Path_1584" d="M183.208 268.685a2.72 2.72 0 0 1-.719.086.973.973 0 0 1-.835-.332 1.9 1.9 0 0 1-.246-1.105v-2.608a.008.008 0 0 1 .008-.007h2.27a.008.008 0 0 0 .008-.008v-1.225a.008.008 0 0 0-.008-.008h-2.27a.008.008 0 0 1-.008-.008v-1.337a.769.769 0 0 0-.677-.778.743.743 0 0 0-.81.74v5.251a5.287 5.287 0 0 0 .11 1.135 2.117 2.117 0 0 0 .381.848 1.69 1.69 0 0 0 .731.534 3.105 3.105 0 0 0 1.148.184 3.681 3.681 0 0 0 .983-.117 5.63 5.63 0 0 0 .67-.225.007.007 0 0 0 0-.009l-.242-1.164a.007.007 0 0 0-.01-.006 4.935 4.935 0 0 1-.484.159z" class="cls-1" transform="translate(-150.899 -238.004)"/>
        <path id="Path_1585" d="M214.885 274.421q-.2-.03-.393-.049t-.344-.018a6.7 6.7 0 0 0-1.431.141 8.248 8.248 0 0 0-1.07.3.008.008 0 0 0 0 .007v6.1a.008.008 0 0 0 .008.008h1.471a.008.008 0 0 0 .008-.008v-5.134a.007.007 0 0 1 0-.007 3.25 3.25 0 0 1 .382-.084 3 3 0 0 1 .522-.049 3.769 3.769 0 0 1 .756.068 4.87 4.87 0 0 1 .5.127.007.007 0 0 0 .009-.006l.254-1.238a.007.007 0 0 0 0-.009q-.109-.036-.289-.078t-.383-.071z" class="cls-1" transform="translate(-177.761 -249.015)"/>
        <path id="Path_1586" d="M243.3 274.893a1.98 1.98 0 0 0-.8-.516 3.636 3.636 0 0 0-1.241-.184 6.475 6.475 0 0 0-1.155.1 5.927 5.927 0 0 0-.818.195.007.007 0 0 0 0 .008l.182 1.189a.007.007 0 0 0 .01.006 4.175 4.175 0 0 1 .692-.169 5.607 5.607 0 0 1 .946-.073 1.754 1.754 0 0 1 .633.1.98.98 0 0 1 .62.688 1.919 1.919 0 0 1 .061.491v.246a4.8 4.8 0 0 0-.577-.1 4.624 4.624 0 0 0-.516-.031 4.82 4.82 0 0 0-1.013.1 2.525 2.525 0 0 0-.854.344 1.756 1.756 0 0 0-.583.62 1.873 1.873 0 0 0-.215.934 2.213 2.213 0 0 0 .191.971 1.678 1.678 0 0 0 .528.639 2.217 2.217 0 0 0 .817.356 4.687 4.687 0 0 0 1.056.111 10.609 10.609 0 0 0 1.566-.1q.688-.1 1.032-.177a.007.007 0 0 0 .006-.007v-3.888a3.94 3.94 0 0 0-.129-1.038 1.931 1.931 0 0 0-.439-.815zm-.879 4.76a.008.008 0 0 1-.006.008 5.575 5.575 0 0 1-1.038.072 1.713 1.713 0 0 1-.9-.2.787.787 0 0 1-.331-.731.771.771 0 0 1 .123-.448.822.822 0 0 1 .325-.277 1.559 1.559 0 0 1 .455-.135 3.423 3.423 0 0 1 .5-.037 3.321 3.321 0 0 1 .516.037 2.964 2.964 0 0 1 .351.072.007.007 0 0 1 .005.007z" class="cls-1" transform="translate(-200.641 -248.88)"/>
        <path id="Path_1587" d="M320.837 274.193a2.968 2.968 0 0 0-1.105.215 2.766 2.766 0 0 0-.958.639 3.111 3.111 0 0 0-.67 1.063 4.034 4.034 0 0 0-.252 1.486 4.312 4.312 0 0 0 .2 1.333 2.857 2.857 0 0 0 .6 1.056 2.737 2.737 0 0 0 1.032.7 3.945 3.945 0 0 0 1.474.252 5.641 5.641 0 0 0 .651-.037q.319-.037.6-.092a4.741 4.741 0 0 0 .491-.123 2.378 2.378 0 0 0 .333-.126.008.008 0 0 0 0-.008l-.194-1.2a.007.007 0 0 0-.01-.006 4.112 4.112 0 0 1-.7.205 4.622 4.622 0 0 1-.989.1 2.077 2.077 0 0 1-1.407-.424 1.69 1.69 0 0 1-.546-1.189.008.008 0 0 1 .008-.009h4.223a.008.008 0 0 0 .008-.007c.008-.08.014-.17.018-.27s.006-.194.006-.276a3.561 3.561 0 0 0-.743-2.457 2.646 2.646 0 0 0-2.07-.825zm-1.428 2.74a.008.008 0 0 1-.008-.009 2.591 2.591 0 0 1 .134-.544 1.545 1.545 0 0 1 .277-.479 1.378 1.378 0 0 1 .436-.338 1.33 1.33 0 0 1 .6-.129 1.3 1.3 0 0 1 .572.117 1.2 1.2 0 0 1 .405.319 1.417 1.417 0 0 1 .252.479 1.967 1.967 0 0 1 .086.576.008.008 0 0 1-.008.008z" class="cls-1" transform="translate(-267.703 -248.88)"/>
        <path id="Path_1588" d="M454.756 275.115a2.748 2.748 0 0 0-.977-.682 3.191 3.191 0 0 0-1.247-.24 3.146 3.146 0 0 0-1.241.24 2.818 2.818 0 0 0-.976.682 3.1 3.1 0 0 0-.639 1.062 3.994 3.994 0 0 0-.227 1.382 4.046 4.046 0 0 0 .227 1.388 3.142 3.142 0 0 0 .633 1.068 2.829 2.829 0 0 0 .97.688 3.109 3.109 0 0 0 1.253.246 3.153 3.153 0 0 0 1.259-.246 2.815 2.815 0 0 0 .977-.688 3.082 3.082 0 0 0 .627-1.068 4.147 4.147 0 0 0 .221-1.388 3.991 3.991 0 0 0-.227-1.382 3.17 3.17 0 0 0-.633-1.062zm-1.075 3.98a1.45 1.45 0 0 1-2.3 0 2.557 2.557 0 0 1-.411-1.535 2.506 2.506 0 0 1 .411-1.517 1.46 1.46 0 0 1 2.3 0 2.508 2.508 0 0 1 .411 1.517 2.559 2.559 0 0 1-.411 1.535z" class="cls-1" transform="translate(-379.145 -248.88)"/>
        <path id="Path_1589" d="M500.521 274.421q-.2-.03-.393-.049t-.344-.018a6.706 6.706 0 0 0-1.431.141 8.264 8.264 0 0 0-1.07.3.008.008 0 0 0 0 .007v6.1a.007.007 0 0 0 .007.008h1.471a.008.008 0 0 0 .008-.008v-5.134a.007.007 0 0 1 0-.007 3.251 3.251 0 0 1 .382-.084 3 3 0 0 1 .522-.049 3.769 3.769 0 0 1 .756.068 4.869 4.869 0 0 1 .5.127.007.007 0 0 0 .009-.006l.255-1.238a.007.007 0 0 0 0-.009q-.109-.036-.289-.078t-.383-.071z" class="cls-1" transform="translate(-419.65 -249.015)"/>
        <path id="Path_1590" d="M363.769 261.356a.769.769 0 0 0-.676.778v7.758a.008.008 0 0 0 .008.008h1.471a.008.008 0 0 0 .007-.008v-7.8a.743.743 0 0 0-.81-.736z" class="cls-1" transform="translate(-306.014 -238.004)"/>
        <path id="Path_1591" d="M528.535 261.356a.742.742 0 0 0-.813.721v7.815a.008.008 0 0 0 .008.008h1.47a.008.008 0 0 0 .008-.008v-7.759a.768.768 0 0 0-.673-.777z" class="cls-1" transform="translate(-445.428 -238.004)"/>
        <path id="Path_1592" d="M551.021 262.1v1.592a.007.007 0 0 1-.011.007 3.732 3.732 0 0 0-.6-.24 2.784 2.784 0 0 0-.823-.111 2.914 2.914 0 0 0-1.216.24 2.487 2.487 0 0 0-.9.681 3.01 3.01 0 0 0-.559 1.062 4.7 4.7 0 0 0-.191 1.381 4.024 4.024 0 0 0 .228 1.394 2.931 2.931 0 0 0 .651 1.056 2.831 2.831 0 0 0 1.026.669 3.753 3.753 0 0 0 1.364.234 8.643 8.643 0 0 0 1.407-.111 8.848 8.848 0 0 0 1.106-.244.007.007 0 0 0 .005-.007v-7.665a.745.745 0 0 0-1.486.062m0 6.571a.008.008 0 0 1-.006.008c-.106.024-.241.046-.406.066a5.153 5.153 0 0 1-.608.031 1.589 1.589 0 0 1-1.29-.559 2.33 2.33 0 0 1-.467-1.541 2.632 2.632 0 0 1 .374-1.5 1.33 1.33 0 0 1 1.185-.553 2.044 2.044 0 0 1 .694.117 2.32 2.32 0 0 1 .519.249.008.008 0 0 1 0 .006z" class="cls-1" transform="translate(-461.518 -238.004)"/>
        <path id="Path_1593" d="M281.5 276.4q-.184.62-.388 1.241t-.414 1.2q-.205.573-.388 1.034a.007.007 0 0 1-.013 0q-.182-.46-.395-1.034t-.419-1.2q-.2-.62-.382-1.241l-.191-.684a.642.642 0 0 0-.621-.477h-.228a.645.645 0 0 0-.616.832q.431 1.416.934 2.688.647 1.637 1.262 2.9a.007.007 0 0 0 .007 0h1.261a.008.008 0 0 0 .007 0q.616-1.264 1.262-2.9.5-1.272.934-2.687a.645.645 0 0 0-.617-.832h-.179a.642.642 0 0 0-.62.474q-.09.326-.196.686z" class="cls-1" transform="translate(-233.461 -249.763)"/>
        <path id="Path_1594" d="M384.547 262.5a.765.765 0 0 1 .734.545q.125.416.259.851.223.725.465 1.451t.484 1.427q.242.7.465 1.321.186-.67.36-1.457t.348-1.637q.174-.849.341-1.73.106-.559.205-1.109a.764.764 0 0 1 .753-.628H389a.768.768 0 0 1 .752.917q-.364 1.841-.791 3.566-.533 2.152-1.19 4.112h-1.5q-.961-2.505-1.861-5.47-.46 1.5-.932 2.853t-.944 2.617h-1.492q-.669-1.96-1.195-4.112-.422-1.726-.784-3.568a.767.767 0 0 1 .751-.915h.109a.764.764 0 0 1 .753.627q.1.541.2 1.1.167.881.347 1.73t.366 1.643q.186.794.372 1.464.236-.633.478-1.333t.478-1.427q.236-.726.453-1.445.128-.426.246-.835a.765.765 0 0 1 .736-.554z" class="cls-1" transform="translate(-319.528 -238.157)"/>
    </g>
</svg>
